<svg xmlns="http://www.w3.org/2000/svg" xmlns:xlink="http://www.w3.org/1999/xlink" width="123" height="122" viewBox="0 0 123 122">
  <defs>
    <filter id="Ellipse_77" x="0" y="0" width="123" height="122" filterUnits="userSpaceOnUse">
      <feOffset dy="3" input="SourceAlpha"/>
      <feGaussianBlur stdDeviation="6" result="blur"/>
      <feFlood flood-opacity="0.522"/>
      <feComposite operator="in" in2="blur"/>
      <feComposite in="SourceGraphic"/>
    </filter>
  </defs>
  <g id="Close" transform="translate(17.395 14.855)">
    <g transform="matrix(1, 0, 0, 1, -17.39, -14.85)" filter="url(#Ellipse_77)">
      <g id="Ellipse_77-2" data-name="Ellipse 77" transform="translate(18 15)" fill="#fff" stroke="#ce1126" stroke-width="2">
        <ellipse cx="43.5" cy="43" rx="43.5" ry="43" stroke="none"/>
        <ellipse cx="43.5" cy="43" rx="42.5" ry="42" fill="none"/>
      </g>
    </g>
    <path id="_9056866_close_icon" data-name="9056866_close_icon" d="M8.082,5.13A2.088,2.088,0,0,0,5.13,8.082L17.185,20.137,5.13,32.192a2.088,2.088,0,1,0,2.952,2.952L20.137,23.089,32.192,35.144a2.088,2.088,0,1,0,2.952-2.952L23.089,20.137,35.144,8.082A2.088,2.088,0,1,0,32.192,5.13L20.137,17.185Z" transform="translate(22.7 21.747)" fill="#ce1126"/>
  </g>
</svg>
