<svg id="Video" xmlns="http://www.w3.org/2000/svg" width="101.559" height="101.559" viewBox="0 0 101.559 101.559">
  <g id="Ellipse_20" data-name="Ellipse 20" transform="translate(0 0)" fill="#ce1126" stroke="#fff" stroke-width="1">
    <circle cx="50.78" cy="50.78" r="50.78" stroke="none"/>
    <circle cx="50.78" cy="50.78" r="50.28" fill="none"/>
  </g>
  <g id="Path_17368" data-name="Path 17368" transform="matrix(-0.017, 1, -1, -0.017, 67.916, 32.46)" fill="#fff">
    <path d="M 29.35219955444336 32.79622650146484 L 6.212850093841553 32.79622650146484 C 4.17188024520874 32.79622650146484 2.334780216217041 31.74644660949707 1.298630237579346 29.98805618286133 C 0.2624703049659729 28.22966575622559 0.2342602908611298 26.11397552490234 1.223160266876221 24.32858657836914 L 12.79283046722412 3.440246105194092 C 13.81257057189941 1.599156141281128 15.67788028717041 0.5000061392784119 17.78252029418945 0.5000061392784119 C 19.88715934753418 0.5000061392784119 21.75247001647949 1.599156141281128 22.77222061157227 3.440246105194092 L 34.34188842773438 24.32858657836914 C 35.33079147338867 26.11398696899414 35.30257034301758 28.22967529296875 34.26641082763672 29.98805618286133 C 33.23025894165039 31.74644660949707 31.39316940307617 32.79622650146484 29.35219955444336 32.79622650146484 Z" stroke="none"/>
    <path d="M 17.78252029418945 0.9999961853027344 C 15.86236953735352 0.9999961853027344 14.16057968139648 2.002805709838867 13.23022079467773 3.682506561279297 L 1.660549163818359 24.57085609436035 C 0.758331298828125 26.19973564147949 0.7840690612792969 28.12996673583984 1.729400634765625 29.73420715332031 C 2.674728393554688 31.33846664428711 4.350780487060547 32.29622650146484 6.212850570678711 32.29622650146484 L 29.35219955444336 32.29622650146484 C 31.21426010131836 32.29622650146484 32.89031219482422 31.33846664428711 33.83563995361328 29.73421669006348 C 34.78097152709961 28.12996673583984 34.80670928955078 26.19973564147949 33.90449905395508 24.57084655761719 L 22.33483123779297 3.682516098022461 C 21.40447044372559 2.002805709838867 19.70267105102539 0.9999961853027344 17.78252029418945 0.9999961853027344 M 17.78252601623535 0 C 19.90563011169434 0 22.02873611450195 1.065996170043945 23.20960998535156 3.197986602783203 L 34.77928161621094 24.08632659912109 C 37.0695686340332 28.22130584716797 34.0791015625 33.29622650146484 29.35219955444336 33.29622650146484 L 6.212850570678711 33.29622650146484 C 1.485939025878906 33.29622650146484 -1.504528045654297 28.22130584716797 0.7857704162597656 24.08632659912109 L 12.35544013977051 3.197986602783203 C 13.53631591796875 1.065996170043945 15.65942001342773 0 17.78252601623535 0 Z" stroke="none" fill="#fff"/>
  </g>
</svg>
